<?xml version="1.0" encoding="UTF-8"?>
<svg width="22px" height="16px" viewBox="0 0 22 16" version="1.1" xmlns="http://www.w3.org/2000/svg" xmlns:xlink="http://www.w3.org/1999/xlink">
    <!-- Generator: Sketch 49.2 (51160) - http://www.bohemiancoding.com/sketch -->
    <title>Logo</title>
    <desc>Created with Sketch.</desc>
    <defs></defs>
    <g id="Symbols" stroke="none" stroke-width="1" fill="none" fill-rule="evenodd">
        <g id="Header" transform="translate(-20.000000, -22.000000)" fill="#4D5969">
            <path d="M24.9925728,37.9015351 C24.9294989,37.9623628 24.8453402,38 24.7528918,38 L20.3546558,38 C20.1587661,38 20,37.8321534 20,37.625339 C20,37.5221219 20.0396465,37.4285993 20.1038017,37.3611185 L27.8110769,30.28609 C27.8883876,30.2174687 27.937405,30.1146318 27.937405,29.9996293 C27.937405,29.8908997 27.8934335,29.7931951 27.8235115,29.724954 L20.1256072,22.6600002 C20.048657,22.5913789 20,22.4891122 20,22.3744899 C20,22.1678656 20.1587661,22.000019 20.3546558,22.000019 L24.7528918,22.000019 C24.8457006,22.000019 24.9302197,22.0374661 24.9932937,22.0988641 L33.2905806,29.7171604 C33.3657287,29.7855917 33.4131242,29.8865277 33.4131242,29.9996293 C33.4131242,30.112921 33.3655485,30.2146174 33.2900399,30.2834288 L24.9925728,37.9015351 Z M36.7182889,37.8922969 L32.4510664,33.9744191 C32.3733954,33.9052275 32.3243779,33.8025807 32.3243779,33.6873881 C32.3243779,33.590634 32.3593389,33.5024337 32.4164659,33.4359033 L34.6127005,31.4194632 C34.6775766,31.344379 34.7712864,31.2970474 34.8754485,31.2970474 C34.9734835,31.2970474 35.0619672,31.3388664 35.1263026,31.4061571 L41.574622,37.3275492 C41.6595015,37.3959804 41.7142857,37.5039496 41.7142857,37.6254151 C41.7142857,37.8320394 41.5555196,37.9998859 41.35963,37.9998859 L36.9669804,37.9998859 C36.870207,37.9998859 36.7822639,37.9588272 36.7182889,37.8922969 Z M36.7182889,22.107399 C36.7822639,22.0410587 36.870207,22 36.9669804,22 L41.35963,22 C41.5555196,22 41.7142857,22.1678466 41.7142857,22.3744709 C41.7142857,22.4959363 41.6595015,22.6037155 41.574622,22.6721467 L35.1263026,28.5935387 C35.0619672,28.6610195 34.9734835,28.7028386 34.8754485,28.7028386 C34.7712864,28.7028386 34.6775766,28.6556971 34.6127005,28.5804227 L32.4164659,26.5639826 C32.3593389,26.4974522 32.3243779,26.409252 32.3243779,26.3124978 C32.3243779,26.1974954 32.3733954,26.0946584 32.4510664,26.025657 L36.7182889,22.107399 Z" id="Logo"></path>
        </g>
    </g>
</svg>